<?xml version="1.0" standalone="no"?>
<!DOCTYPE svg PUBLIC "-//W3C//DTD SVG 20010904//EN"
 "http://www.w3.org/TR/2001/REC-SVG-20010904/DTD/svg10.dtd">
<svg version="1.0" xmlns="http://www.w3.org/2000/svg"
 width="512.000000pt" height="512.000000pt" viewBox="0 0 512.000000 512.000000"
 preserveAspectRatio="xMidYMid meet">

<g transform="translate(0.000000,512.000000) scale(0.100000,-0.100000)"
fill="#000000" stroke="none">
<path d="M3721 4444 c-19 -24 -21 -40 -21 -181 0 -152 0 -154 26 -179 19 -20
31 -24 52 -19 55 13 57 22 57 201 0 162 -1 166 -24 185 -33 27 -66 24 -90 -7z"/>
<path d="M4160 4262 c-8 -2 -68 -57 -132 -120 -100 -99 -118 -121 -118 -148 0
-38 27 -64 66 -64 23 0 50 21 146 117 99 99 118 123 118 148 0 16 -4 35 -8 42
-10 16 -53 31 -72 25z"/>
<path d="M2306 3979 c-65 -16 -158 -71 -212 -126 -56 -57 -109 -155 -120 -222
-6 -37 -9 -42 -28 -36 -12 3 -53 8 -93 12 -320 27 -587 -256 -542 -575 10 -71
45 -156 84 -208 l25 -32 -43 -25 c-107 -63 -201 -198 -233 -333 -29 -125 -3
-276 66 -385 36 -55 123 -140 168 -163 18 -9 32 -21 32 -26 0 -5 -14 -31 -30
-57 -99 -156 -96 -378 8 -539 116 -179 326 -263 549 -218 29 6 30 4 36 -33 4
-22 23 -71 42 -110 96 -192 313 -292 520 -238 99 26 173 75 248 165 l27 32 50
-55 c149 -163 373 -203 563 -99 105 57 206 193 223 301 7 42 8 43 38 36 131
-27 249 -11 368 51 180 95 290 313 259 514 -11 73 -61 199 -87 221 -23 19 -16
33 30 62 105 66 200 203 225 325 42 201 -49 430 -212 532 -31 19 -56 38 -57
42 0 4 14 27 30 52 92 135 101 320 24 483 -38 81 -149 190 -234 231 -108 50
-236 64 -351 36 -25 -5 -27 -3 -33 40 -10 67 -61 160 -121 222 -193 197 -521
173 -693 -50 l-23 -30 -16 25 c-36 53 -110 113 -180 147 -67 31 -85 35 -171
38 -54 2 -114 -1 -136 -7z m250 -153 c62 -29 124 -90 156 -154 l23 -47 3 -566
2 -566 -51 -6 c-154 -18 -280 -147 -296 -301 -5 -49 -3 -57 21 -81 21 -21 33
-25 54 -20 40 10 50 22 57 68 3 23 11 56 16 74 13 42 87 109 130 118 19 3 42
9 52 12 17 4 17 -28 15 -669 l-3 -673 -27 -51 c-35 -67 -115 -138 -179 -159
-217 -72 -429 84 -429 315 0 57 -4 74 -20 90 -26 26 -40 25 -108 -7 -50 -24
-69 -27 -157 -28 -88 0 -107 3 -157 27 -74 34 -146 107 -183 183 -26 53 -29
71 -29 155 0 84 3 102 28 154 16 33 53 84 83 114 51 52 62 78 47 116 -3 8 -37
27 -76 42 -120 46 -196 120 -238 231 -31 81 -25 203 12 285 33 72 102 146 170
183 47 26 65 30 156 33 81 3 113 1 148 -13 113 -43 138 -210 44 -300 -25 -24
-42 -30 -97 -36 -52 -5 -71 -12 -85 -29 -24 -30 -23 -65 3 -91 19 -19 30 -21
93 -17 114 8 198 64 248 167 19 39 23 62 23 146 0 92 -2 104 -30 154 -62 112
-139 151 -301 151 l-101 0 -43 46 c-66 72 -85 123 -85 229 0 82 3 97 33 157
91 185 303 261 490 177 100 -45 128 -24 134 99 5 101 26 152 92 220 95 100
234 126 362 68z m706 23 c98 -20 178 -82 226 -174 20 -39 26 -69 30 -135 6
-126 34 -149 129 -103 52 25 69 28 163 28 101 0 108 -1 168 -34 75 -41 135
-103 170 -179 23 -49 27 -70 27 -147 0 -107 -22 -166 -88 -232 l-41 -43 -106
0 c-122 0 -179 -20 -242 -86 -60 -63 -83 -125 -83 -224 0 -96 19 -150 75 -213
55 -63 111 -90 200 -95 75 -4 77 -4 99 24 16 20 20 36 16 54 -10 40 -29 52
-98 59 -78 8 -108 27 -136 84 -41 85 -19 189 51 239 30 21 44 23 148 23 105 0
120 -2 171 -28 70 -34 142 -109 177 -185 24 -50 27 -69 27 -162 0 -96 -3 -110
-28 -158 -53 -100 -113 -152 -229 -198 -68 -26 -78 -36 -78 -75 0 -19 16 -43
56 -84 31 -31 68 -82 82 -113 23 -49 27 -70 27 -152 0 -82 -4 -103 -26 -150
-39 -81 -99 -144 -177 -182 -61 -30 -74 -33 -162 -33 -83 0 -103 4 -154 28
-66 31 -84 33 -111 13 -16 -12 -21 -31 -26 -108 -5 -72 -12 -104 -32 -143 -34
-66 -89 -118 -161 -151 -52 -23 -67 -26 -140 -22 -127 7 -219 67 -273 176
l-28 57 -3 458 -3 457 60 0 c33 0 72 -5 88 -11 63 -24 116 -98 126 -179 9 -74
59 -100 112 -58 25 20 27 26 23 78 -5 76 -55 178 -110 224 -66 57 -123 79
-216 84 l-82 5 2 766 c3 761 3 766 25 813 44 96 134 167 234 187 62 12 62 12
121 0z"/>
<path d="M1900 3275 c-20 -21 -22 -31 -17 -80 11 -109 79 -205 181 -255 55
-27 77 -32 183 -39 111 -7 124 -9 158 -35 48 -37 72 -78 80 -137 5 -36 14 -55
32 -69 32 -25 44 -25 78 2 26 20 27 25 23 82 -7 78 -42 149 -103 205 -71 65
-119 83 -256 90 -104 6 -121 10 -158 34 -47 31 -75 81 -85 149 -11 76 -70 102
-116 53z"/>
<path d="M1899 1980 c-33 -19 -31 -56 11 -166 72 -189 106 -239 202 -304 113
-75 216 -88 427 -51 124 22 151 37 151 83 0 30 -30 68 -55 68 -8 0 -72 -9
-142 -21 -186 -30 -263 -15 -347 69 -46 45 -54 60 -106 198 -23 60 -49 115
-58 122 -19 14 -60 15 -83 2z"/>
<path d="M3630 3280 c-11 -11 -20 -33 -20 -50 0 -39 -24 -98 -53 -128 -41 -45
-76 -56 -198 -62 -98 -5 -125 -11 -172 -33 -96 -48 -168 -151 -183 -264 -6
-47 -4 -54 19 -77 51 -51 109 -18 120 69 8 57 36 102 85 135 29 21 51 25 152
31 95 5 128 11 171 31 104 48 179 151 194 265 6 47 4 55 -19 78 -30 30 -69 32
-96 5z"/>
<path d="M3372 2237 c-12 -13 -22 -33 -22 -46 0 -12 28 -63 61 -113 95 -140
112 -186 107 -272 -7 -98 -31 -141 -154 -267 -67 -69 -104 -115 -104 -128 0
-28 43 -71 71 -71 30 0 238 206 273 269 68 126 73 282 11 401 -34 66 -154 237
-170 244 -30 11 -51 6 -73 -17z"/>
<path d="M4083 3850 c-46 -19 -55 -69 -18 -105 23 -24 28 -25 178 -25 141 0
157 2 181 21 31 24 34 57 7 90 -18 23 -25 24 -173 26 -84 1 -163 -2 -175 -7z"/>
</g>
</svg>
